#!Matlab matrix to amc conversion
:FULLY-SPECIFIED
:DEGREES
1
root 9.287220 16.950000 -34.276200 0.000000 0.000000 0.000000
lowerback 0.000000 0.000000 0.000000
upperback 0.000000 0.000000 0.000000
thorax 0.000000 0.000000 0.000000
lowerneck -16.000000 0.000000 0.000000
upperneck 21.000000 0.000000 0.000000
head 11.000000 0.000000 0.000000
rclavicle 0.000000 0.000000
rhumerus 0.000000 0.000000 0.000000
rradius 0.000000
rwrist 0.000000
rhand 0.000000 0.000000
rfingers 0.000000
rthumb 0.000000 0.000000
lclavicle 0.000000 0.000000
lhumerus 0.000000 0.000000 0.000000
lradius 0.000000
lwrist 0.000000
lhand 0.000000 0.000000
lfingers 0.000000
lthumb 0.000000 0.000000
rfemur 0.000000 0.000000 21.000000
rtibia 0.000000
rfoot 0.000000 0.000000
rtoes 0.000000
lfemur 0.000000 0.000000 -21.000000
ltibia 0.000000
lfoot 0.000000 0.000000
ltoes 0.000000
2
root 9.287220 16.950000 -34.276200 1.676868 1.634016 -0.074206
lowerback -5.073075 0.022166 0.381207
upperback -3.451375 -0.034956 2.122625
thorax -0.733620 0.010465 2.004859
lowerneck -15.234204 1.076757 0.332333
upperneck 42.434730 2.805409 -2.545105
head 19.466868 0.898741 -0.743663
rclavicle -0.000000 0.000000
rhumerus -44.661484 -18.622526 -66.629066
rradius 21.472772
rwrist -2.636850
rhand -5.713044 11.727397
rfingers 7.125020
rthumb 20.109367 -17.252828
lclavicle -0.000000 0.000000
lhumerus -43.798928 23.208201 64.664116
lradius 35.672520
lwrist -1.271919
lhand -6.002622 23.294230
lfingers 7.125020
lthumb 19.820763 52.310341
rfemur -31.615036 15.633910 20.379183
rtibia 28.943776
rfoot -14.363932 -18.688307
rtoes 5.685515
lfemur 1.900199 -3.864463 -22.739535
ltibia 30.931055
lfoot -7.909808 11.941962
ltoes -27.322050
3
root 9.273270 17.016600 -33.905900 1.847652 1.634016 0.015959
lowerback -5.557101 0.217740 1.452063
upperback -3.501370 0.218940 2.519306
thorax -0.587555 0.120110 1.817417
lowerneck -15.027355 1.090730 0.422008
upperneck 42.696471 2.828336 -2.638383
head 19.572904 0.921107 -0.799857
rclavicle -0.000000 0.000000
rhumerus -44.853215 -19.480940 -65.549487
rradius 20.393773
rwrist -1.558636
rhand -5.625960 11.577832
rfingers 7.125020
rthumb 20.193827 -17.400082
lclavicle -0.000000 0.000000
lhumerus -46.542544 26.090116 62.159106
lradius 31.326858
lwrist -1.781479
lhand -5.986439 23.928050
lfingers 7.125020
lthumb 19.841455 52.915689
rfemur -29.733053 15.259589 23.005462
rtibia 30.276888
rfoot -13.644487 -17.094503
rtoes 7.126261
lfemur -0.619514 -1.854803 -20.599982
ltibia 38.460946
lfoot -3.905548 10.102200
ltoes -25.209215
4
root 9.268420 17.025800 -33.555600 1.992363 1.634016 0.018804
lowerback -5.075281 0.373980 2.016161
upperback -3.391288 0.446983 2.570860
thorax -0.717258 0.221277 1.587616
lowerneck -15.050463 0.935738 0.435459
upperneck 42.777680 2.485732 -2.396899
head 19.650267 0.819141 -0.759751
rclavicle -0.000000 0.000000
rhumerus -44.027735 -19.099367 -65.952100
rradius 20.669858
rwrist -2.349212
rhand -5.410729 11.383954
rfingers 7.125020
rthumb 20.401787 -17.564144
lclavicle -0.000000 0.000000
lhumerus -50.981758 30.268524 56.901592
lradius 26.872292
lwrist -5.482050
lhand -5.207949 24.337527
lfingers 7.125020
lthumb 20.587821 53.245082
rfemur -27.181103 15.340820 24.557176
rtibia 30.806438
rfoot -14.658961 -17.320152
rtoes 7.252444
lfemur -5.445122 -0.220201 -19.077065
ltibia 47.408941
lfoot -1.823634 10.549458
ltoes -22.325000
